# xmcd
# 
# Track frame offsets:
#     150
#     19940
#     38820
#     52601
#     63654
#     81180
#     114616
#     133339
#     155215
#     173198
#     194095
#     215631
#     245613
#     264843
# 
# Disc length: 3645
# 
# Revision: 1
# Processed by: cddbd v1.5.2PL0 Copyright (c) Steve Scherf et al.
# Submitted via: fre:ac v1.1beta1pre4
# 
DISCID=d00e3b0e
DTITLE=Jed Clampit - Jed Clampit LIve
DYEAR=2000
DGENRE=Country
TTITLE0=The Boogie Woogie
TTITLE1=Local Girl and the Cowboy
TTITLE2=Blue Eyes Cryin' in the Rain
TTITLE3=Lovely Lady
TTITLE4=Mama Tried
TTITLE5=Shortenin' Bread
TTITLE6=Sixteen Tons
TTITLE7=Blow Wind Blow
TTITLE8=Love Someone Like Me
TTITLE9=Circle Unbroken/Swing Low Sweet Chariot/I'll Fly Away
TTITLE10=Please Come to Boston
TTITLE11=Guilty/Nightlife
TTITLE12=Poncho and Lefty
TTITLE13=Me and That Fly
EXTD=
EXTT0=
EXTT1=
EXTT2=
EXTT3=
EXTT4=
EXTT5=
EXTT6=
EXTT7=
EXTT8=
EXTT9=
EXTT10=
EXTT11=
EXTT12=
EXTT13=
PLAYORDER=
